<?xml version="1.0" encoding="UTF-8"?>
<svg width="40px" height="40px" viewBox="0 0 40 40" version="1.1" xmlns="http://www.w3.org/2000/svg">
    <g stroke="none" stroke-width="1" fill="none" fill-rule="evenodd">
        <g id="slim" transform="translate(3.000000, 1.000000)">
            <g id="Group" fill="#6F9B3E">
                <path d="M11.9329896,37.9404366 C11.8674698,37.9166112 11.6947358,37.8570477 11.5458272,37.8153533 C11.2063155,37.7081391 10.4975105,37.2495005 10.265213,36.9755087 C9.83635618,36.4692193 9.69340391,36.2369219 9.50875721,35.7187199 C9.37176128,35.3494265 9.37176128,35.3494265 9.35389224,24.7173508 C9.34197955,17.1170546 9.32411052,14.0793187 9.27645976,14.049537 C9.19307093,14.0018862 8.99651155,14.049537 8.9369481,14.1388821 C8.91312272,14.1746202 8.88334099,15.6815755 8.86547196,17.4803916 C8.83569023,20.7563814 8.83569023,20.7563814 8.57361106,21.2924524 C8.09710346,22.2633366 7.26917151,22.9244909 6.25659287,23.1389193 C5.73243451,23.2461336 3.22481329,23.2640026 2.71852397,23.1627447 C1.65233822,22.9483163 0.812493584,22.3288564 0.347898678,21.4115793 C0.0322123957,20.7921194 0.0262560508,20.7265996 0.00838701592,18.4274505 C-0.0154383639,16.104476 -0.00948201893,16.0627815 0.318116953,15.6756191 C0.615934201,15.3241948 0.895882414,15.2467623 1.92037375,15.2467623 C2.79595645,15.2467623 2.8555199,15.2527186 3.13546812,15.4016273 C3.45711074,15.5684049 3.70727723,15.8721785 3.80257875,16.2057338 C3.83831682,16.3189044 3.8621422,16.9800587 3.8621422,17.676951 C3.8621422,19.023085 3.90383661,19.2792078 4.14804676,19.4102474 C4.37438786,19.5293743 4.63646704,19.4876799 4.82111374,19.3030332 C4.99384774,19.1302992 4.99384774,19.1302992 4.99384774,15.9376983 C4.99384774,12.4651492 4.99384774,12.4472802 5.34527209,11.6967807 C5.58352589,11.1904914 6.19702942,10.5531625 6.70927509,10.2851269 C7.30490958,9.97539701 7.71589738,9.88605183 8.60934912,9.88605183 C9.37771762,9.88605183 9.37771762,9.88605183 9.45515011,9.30828637 C9.69936025,7.43203771 10.2116059,6.03229665 11.2063155,4.56107945 C11.8317317,3.62593329 12.9813063,2.45848968 13.8688017,1.86285518 C14.1606626,1.6662958 14.9409438,1.1897882 14.9707255,1.1897882 C14.9826382,1.1897882 15.2149357,1.08853034 15.4889275,0.957490751 C15.7569631,0.832407507 16.0905184,0.695411573 16.221558,0.659673504 C16.3525976,0.617979089 16.5134189,0.564371985 16.5789387,0.53459026 C17.60343,0.111689768 19.8727974,-0.120607685 21.2248877,0.0640390087 C21.8919984,0.153384183 22.9284024,0.349943566 23.0713547,0.415463361 C23.1368745,0.445245086 23.3989536,0.540546605 23.6550765,0.623935434 C24.6021353,0.933665372 25.7517099,1.60673235 26.5855982,2.33936278 C26.978717,2.69078713 26.978717,2.69078713 29.4327311,2.70269982 C32.1309553,2.71461251 32.0475665,2.70865617 32.8695421,3.11368762 C33.7510812,3.5485008 34.5194497,4.45982158 34.8053542,5.40092408 C34.8827867,5.64513423 34.8946994,6.59814942 34.8946994,11.5597848 C34.8946994,17.3433957 34.8946994,17.4386972 34.7696161,17.813947 C34.4956243,18.6657043 33.9416842,19.3566403 33.1077959,19.904624 C32.9112365,20.0297073 32.7206335,20.1309651 32.6729827,20.1309651 C32.6312883,20.1309651 32.5717249,20.1547905 32.5419431,20.1845723 C32.3930345,20.3215682 31.6604041,20.4466514 30.8562975,20.4704768 C30.0045402,20.5002585 30.0045402,20.5002585 30.0224092,20.6908616 C30.0402783,20.8576392 30.07006,20.8814646 30.3261828,20.9469844 C31.1302894,21.1435438 32.0296975,21.8583052 32.3930345,22.5730666 C32.7087208,23.1925265 32.7504152,23.4129112 32.7504152,24.4016645 C32.7504152,25.3070289 32.7504152,25.3070289 32.9291056,25.4380685 C33.1137523,25.5810208 33.3460497,26.0039213 33.3460497,26.2123933 C33.3460497,26.2838695 33.2924426,26.534036 33.2209665,26.7663334 C32.7623279,28.3566775 32.7027645,28.4698481 32.3394274,28.4698481 C31.9939594,28.4698481 31.9760904,28.4400664 31.451932,27.0105436 C31.2672853,26.4982979 31.2434599,25.9562705 31.3983249,25.7239731 C31.4578884,25.6346279 31.6127533,25.4916756 31.7497493,25.4023304 C31.9880031,25.2415091 31.9880031,25.2415091 31.9641777,24.3718828 C31.9403523,23.5320381 31.934396,23.478431 31.7437929,23.0912686 C31.4281066,22.4360706 30.8086468,21.8999996 30.2070559,21.76896 C30.0104965,21.7272656 30.0104965,21.7272656 30.0104965,28.4460227 C30.0104965,35.1052164 30.0104965,35.1588235 29.8854133,35.5817239 C29.7067229,36.1892711 29.5339889,36.4870884 29.1230011,36.9397706 C28.723926,37.3745838 28.2772002,37.6604883 27.687522,37.8630041 C27.3301413,37.9880873 27.1931454,37.9940437 25.7695789,38 C24.9297343,38 24.1792348,37.9761746 24.1018023,37.9463929 C24.0243699,37.9166112 23.8456795,37.8570477 23.6967709,37.8153533 C23.0415729,37.6187939 22.2255537,36.9040325 21.886042,36.2309655 C21.5465304,35.5519422 21.5465304,35.5340732 21.5048359,33.5327413 C21.4631415,31.6564926 21.4631415,31.6564926 21.3082766,31.3884571 C20.9747212,30.8226043 20.6173405,30.5605252 19.9978807,30.4294856 C19.3188573,30.2805769 18.4432746,30.6915647 18.1097193,31.2991119 C17.8774219,31.7279688 17.8595528,31.8649647 17.8595528,33.5327413 C17.8595528,35.3196448 17.8357275,35.5042915 17.5081285,36.1773584 C17.3175254,36.5764336 16.6682838,37.3209767 16.394292,37.463929 C16.2989905,37.5115797 16.1560382,37.5949685 16.0726493,37.6485756 C15.9892605,37.7021828 15.7450504,37.8034406 15.5246656,37.8749168 C15.1553722,37.9880873 15.0005073,38 13.5888535,37.9940437 C12.7430525,37.9940437 11.9985094,37.9702183 11.9329896,37.9404366 Z M15.5604037,36.8385127 C16.0309549,36.6002589 16.4359864,36.1892711 16.6801965,35.6948945 C16.8767559,35.289863 16.8767559,35.289863 16.912494,33.4433961 C16.930363,32.4308175 16.9720574,31.5135403 17.0077955,31.4182388 C17.2639183,30.6558267 17.7344696,30.1137993 18.4373183,29.7683313 C18.9197822,29.5300775 18.985302,29.5122084 19.5511548,29.4943394 C20.0514878,29.4764704 20.2182654,29.4943394 20.5399081,29.6015536 C21.2010624,29.8219384 21.7013953,30.2091008 22.058776,30.7868663 C22.3982877,31.33485 22.404244,31.4003698 22.4459384,33.3838327 C22.4757202,35.1230854 22.4876329,35.2481686 22.6186724,35.5757676 C22.8092755,36.0582315 23.3036521,36.5764336 23.8039851,36.8206437 C24.2030602,37.0172031 24.2030602,37.0172031 25.7814916,37.0172031 C27.359923,37.0172031 27.359923,37.0172031 27.7113474,36.8385127 C28.1282915,36.6300407 28.5869301,36.1952275 28.7715768,35.8378468 C29.0634377,35.2600813 29.0574813,35.4685534 29.0574813,27.7133923 C29.0574813,20.4287824 29.0574813,20.4287824 28.1104225,20.4287824 C27.0799748,20.4287824 26.4188205,20.3394372 25.7517099,20.1130961 C23.8635485,19.4638545 22.3446806,17.9211612 21.7430897,16.0210871 C21.5643994,15.4671471 21.4988796,15.0561592 21.4810106,14.4426557 C21.4631415,13.9065847 21.4631415,13.9065847 21.9098674,13.9065847 C22.3565933,13.9065847 22.3565933,13.9065847 22.3982877,14.4903065 C22.4935892,15.8007024 22.9760531,16.8966698 23.8695049,17.8258597 C24.768913,18.7669622 25.8648804,19.3149459 27.151451,19.4757672 C27.9317321,19.5710687 31.2017655,19.5531997 31.6901858,19.4519418 C32.7444589,19.2256007 33.5664345,18.4810576 33.8821208,17.4625226 C33.9952913,17.0932292 34.0012476,16.9026262 34.0012476,11.5895665 C34.0012476,7.19974026 33.9833786,6.04420934 33.9178588,5.80595554 C33.6379106,4.76359517 32.7444589,3.9058815 31.7080548,3.69145308 C31.4817137,3.64380232 30.6716508,3.63188963 29.0991758,3.64380232 C26.514122,3.67358405 26.4366896,3.68549674 25.3943292,4.1977424 C24.1792348,4.79933324 23.2738704,5.76426113 22.7616247,7.02700626 C22.5174146,7.62264075 22.4399821,7.99789048 22.3923313,8.71860822 C22.3565933,9.32019906 22.3565933,9.32019906 21.9217801,9.3380681 C21.558443,9.34998079 21.4869669,9.3380681 21.4512288,9.24872292 C21.3916654,9.08790161 21.5346177,7.81920013 21.6775699,7.3248235 C22.1898156,5.48431291 23.6133821,3.89396881 25.3824165,3.18516376 C25.6028013,3.09581859 25.7934043,3.00051707 25.8112733,2.97669169 C25.8589241,2.89925921 24.9654724,2.27979933 24.3102744,1.94624401 C23.559775,1.56503794 22.6067598,1.24339531 21.7609588,1.09448669 C20.8615507,0.933665372 19.0150838,0.945578061 18.0918503,1.11831207 C15.1494159,1.6662958 12.5405368,3.65571501 11.283748,6.31224486 C10.7178952,7.5094702 10.4319907,8.66500112 10.3664709,10.0349605 C10.3247765,10.8092853 10.3247765,10.8092853 8.98459886,10.839067 C7.64442124,10.8688487 7.64442124,10.8688487 7.20960806,11.1011462 C6.70331874,11.3691817 6.42337053,11.666999 6.16129135,12.2090264 C5.97664466,12.5961888 5.97664466,12.5961888 5.94686293,15.9615237 C5.91708121,19.6604139 5.9289939,19.5174616 5.53587513,19.9641875 C5.25592692,20.2858301 4.82707008,20.4466514 4.30886807,20.4168697 C3.93957468,20.3990007 3.85022951,20.3751753 3.59410668,20.1845723 C3.37967826,20.0356636 3.24268232,19.8748423 3.11759908,19.6187195 C2.93890873,19.2672951 2.93890873,19.2672951 2.9210397,17.8199033 C2.89721432,16.3725115 2.89721432,16.3725115 2.74830569,16.27721 C2.55174631,16.1461704 1.58681843,16.0925633 1.28304484,16.1938211 C0.901838759,16.3189044 0.913751448,16.2652973 0.931620483,18.367887 C0.943533173,19.4698109 0.973314898,20.3811316 1.00905297,20.5181276 C1.18774332,21.1733255 1.65829457,21.7332219 2.30157982,22.0489082 C2.70065493,22.2454676 2.70065493,22.2454676 4.42799497,22.2454676 C6.15533501,22.2454676 6.15533501,22.2454676 6.54249743,22.0548646 C7.25725882,21.7034402 7.76950449,21.0363296 7.90650042,20.2798738 C7.94819484,20.059489 7.97202022,18.8384383 7.97202022,16.9264516 C7.97202022,13.9184974 7.97202022,13.9184974 8.12092884,13.6623745 C8.21623036,13.5015532 8.38300802,13.3407319 8.55574202,13.239474 C8.8178212,13.0846091 8.87738465,13.0726964 9.55045163,13.0726964 C10.265213,13.0726964 10.265213,13.0726964 10.2949947,24.151498 C10.3247765,35.2302996 10.3247765,35.2302996 10.4677287,35.5817239 C10.6285501,35.9569737 11.0693196,36.4870884 11.4028749,36.6955605 C11.9508586,37.0291158 12.0521165,37.0469848 13.6901114,37.0291158 C15.2089793,37.0172031 15.2089793,37.0172031 15.5604037,36.8385127 Z M32.5300304,26.9509801 C32.7682842,26.188568 32.7742406,26.1230482 32.6312883,25.9979649 C32.3930345,25.7835365 31.8569635,25.9205324 31.8569635,26.1945243 C31.8569635,26.3434329 32.3036893,27.5168329 32.3394274,27.4691821 C32.3632528,27.4453567 32.4466416,27.2130593 32.5300304,26.9509801 Z" id="pjZpMBxH9"/>
                <path d="M14.8456423,10.3089523 C14.3512657,10.1838691 13.9879286,9.69544879 13.9879286,9.16533409 C13.9879286,8.31953311 14.893293,7.76559303 15.6437925,8.15275545 C16.3228158,8.49822346 16.4955498,9.35593713 16.0011732,9.9217899 C15.6973996,10.2672579 15.2625864,10.4161665 14.8456423,10.3089523 Z" id="pjp0PWjcY"/>
                <path d="M32.3692091,7.68816055 C32.3096457,7.62264075 32.2441259,7.41416868 32.2143442,7.19378391 C32.142868,6.6219748 32.0356538,6.3301139 31.7914437,6.05016568 C31.6008406,5.83573727 31.4817137,5.76426113 31.0707259,5.63322154 C30.7967341,5.53792002 30.3797899,5.45453119 30.1415361,5.43666215 C29.7722427,5.40688043 29.6888539,5.3770987 29.5935524,5.25201546 C29.3672113,4.9661109 29.4922945,4.57299214 29.8318062,4.49555965 C30.2070559,4.41217082 31.3387615,4.67425 31.9641777,4.99589263 C32.5300304,5.28179719 32.9112365,5.8536063 33.0780142,6.65771287 C33.2030974,7.25334736 33.1971411,7.58094634 33.0601451,7.70007324 C32.9052802,7.84302551 32.5002487,7.83111282 32.3692091,7.68816055 Z" id="pdneXlYxX"/>
            </g>
            <g id="Group" transform="translate(0.924711, 0.980957)" fill="#FFFEFF">
                <path d="M10.9665841,35.9528569 C10.3232988,35.696734 9.78722777,35.1904447 9.54301763,34.6007666 C9.40006535,34.2493422 9.40006535,34.2493422 9.37028362,23.1705406 C9.3405019,12.091739 9.3405019,12.091739 8.6257405,12.091739 C7.95267352,12.091739 7.89311007,12.1036517 7.6310309,12.2585167 C7.45829689,12.3597745 7.29151923,12.5205958 7.19621772,12.6814171 C7.04730909,12.93754 7.04730909,12.93754 7.04730909,15.9454942 C7.04730909,17.8574809 7.02348371,19.0785316 6.9817893,19.2989164 C6.84479336,20.0553722 6.3325477,20.7224828 5.6177863,21.0739072 C5.23062388,21.2645102 5.23062388,21.2645102 3.50328385,21.2645102 C1.77594381,21.2645102 1.77594381,21.2645102 1.3768687,21.0679508 C0.733583444,20.7522646 0.263032193,20.1923681 0.0843418445,19.5371702 C0.0486037748,19.4001743 0.01882205,18.4888535 0.00690936014,17.3869297 C-0.0109596747,15.2843399 -0.0228723646,15.337947 0.358333712,15.2128638 C0.662107305,15.1116059 1.62703519,15.165213 1.82359457,15.2962526 C1.97250319,15.3915541 1.97250319,15.3915541 1.99632857,16.8389459 C2.01419761,18.2863377 2.01419761,18.2863377 2.19288796,18.6377621 C2.3179712,18.8938849 2.45496713,19.0547062 2.66939555,19.2036149 C2.92551839,19.3942179 3.01486356,19.4180433 3.38415695,19.4359123 C3.90235896,19.465694 4.33121579,19.3048727 4.61116401,18.9832301 C5.00428277,18.5365042 4.99237008,18.6794565 5.02215181,14.9805663 C5.05193353,11.6152314 5.05193353,11.6152314 5.23658023,11.228069 C5.4986594,10.6860416 5.77860762,10.3882243 6.28489694,10.1201888 C6.71971012,9.88789137 6.71971012,9.88789137 8.05988773,9.85810964 C9.40006535,9.82832792 9.40006535,9.82832792 9.44175976,9.05400307 C9.50727956,7.68404373 9.79318411,6.52851281 10.3590369,5.33128748 C11.6158257,2.67475763 14.2247048,0.685338417 17.1671392,0.137354681 C18.0903726,-0.0353793222 19.9368396,-0.0472920121 20.8362477,0.113529302 C21.6820486,0.262437925 22.6350638,0.584080553 23.3855633,0.96528663 C24.0407612,1.29884195 24.934213,1.91830182 24.8865622,1.99573431 C24.8686932,2.01955969 24.6780901,2.11486121 24.4577054,2.20420638 C22.6886709,2.91301143 21.2651045,4.50335553 20.7528588,6.34386612 C20.6099065,6.83824275 20.4669543,8.10694423 20.5265177,8.26776554 C20.5622558,8.35711071 20.6337319,8.3690234 20.997069,8.35711071 C21.4318821,8.33924168 21.4318821,8.33924168 21.4676202,7.73765084 C21.515271,7.0169331 21.5927035,6.64168337 21.8369136,6.04604887 C22.3491593,4.78330374 23.2545237,3.81837586 24.4696181,3.21678502 C25.5119784,2.70453936 25.5894109,2.69262667 28.1744646,2.66284494 C29.7469397,2.65093225 30.5570026,2.66284494 30.7833437,2.7104957 C31.8197477,2.92492412 32.7131995,3.78263779 32.9931477,4.82499816 C33.0586675,5.06325196 33.0765365,6.21878288 33.0765365,10.6086091 C33.0765365,15.9216688 33.0705802,16.1122718 32.9574096,16.4815652 C32.6417233,17.5001002 31.8197477,18.2446433 30.7654747,18.4709844 C30.2770544,18.5722423 27.007021,18.5901113 26.2267398,18.4948098 C24.9401693,18.3339885 23.8442019,17.7860048 22.9447938,16.8449023 C22.051342,15.9157125 21.5688781,14.819745 21.4735766,13.5093491 C21.4318821,12.9256273 21.4318821,12.9256273 20.9851563,12.9256273 C20.5384304,12.9256273 20.5384304,12.9256273 20.5562994,13.4616983 C20.6396883,16.3386129 22.8494922,18.8521905 25.7442759,19.3584798 C26.0420931,19.4120869 26.6258149,19.447825 27.1857114,19.447825 C28.1327702,19.447825 28.1327702,19.447825 28.1327702,26.7324349 C28.1327702,34.487596 28.1387266,34.2791239 27.8468657,34.8568894 C27.662219,35.2142701 27.2035804,35.6490833 26.7866363,35.8575554 C26.4352119,36.0362457 26.4352119,36.0362457 24.8567805,36.0362457 C23.2783491,36.0362457 23.2783491,36.0362457 22.879274,35.8396863 C22.378941,35.5954762 21.8845644,35.0772742 21.6939613,34.5948102 C21.5629217,34.2672112 21.551009,34.142128 21.5212273,32.4028753 C21.4795329,30.4194124 21.4735766,30.3538926 21.1340649,29.8059089 C20.7766842,29.2281434 20.2763512,28.840981 19.6151969,28.6205962 C19.2935543,28.513382 19.1267767,28.495513 18.6264437,28.513382 C18.0605909,28.5312511 17.9950711,28.5491201 17.5126072,28.7873739 C16.8097585,29.1328419 16.3392072,29.6748693 16.0830844,30.4372814 C16.0473463,30.532583 16.0056519,31.4498601 15.9877829,32.4624387 C15.9520448,34.3089057 15.9520448,34.3089057 15.7554854,34.7139371 C15.5112753,35.2083138 15.1062438,35.6193016 14.6356926,35.8575554 C14.2842682,36.0362457 14.2842682,36.0362457 12.7654002,36.0481584 C11.4013973,36.0600711 11.2167506,36.0541147 10.9665841,35.9528569 Z M14.7309941,9.23269342 C14.9752042,9.10761018 15.2551524,8.75618583 15.3266286,8.48219396 C15.4636245,7.97590464 15.2075017,7.42196456 14.7190814,7.17179807 C13.9685819,6.78463565 13.0632175,7.33857573 13.0632175,8.18437671 C13.0632175,9.05400307 13.9685819,9.62581219 14.7309941,9.23269342 Z M32.135434,6.71911585 C32.27243,6.59998895 32.2783863,6.27238998 32.1533031,5.67675549 C31.9865254,4.87264892 31.6053193,4.3008398 31.0394666,4.01493524 C30.4140503,3.69329262 29.2823448,3.43121344 28.9070951,3.51460227 C28.5675834,3.59203475 28.4425002,3.98515352 28.6688413,4.27105808 C28.7641428,4.39614132 28.8475316,4.42592305 29.216825,4.45570477 C29.4550788,4.47357381 29.8720229,4.55696263 30.1460148,4.65226415 C30.908427,4.90243064 31.1705061,5.26576768 31.289633,6.21282653 C31.3194148,6.43321129 31.3849346,6.64168337 31.444498,6.70720316 C31.5755376,6.85015544 31.9805691,6.86206813 32.135434,6.71911585 Z" id="pxPPw6Tpc"/>
                <path d="M31.1526371,25.9164156 C31.0335102,25.576904 30.9322523,25.2612177 30.9322523,25.2135669 C30.9322523,25.0646583 31.1645498,24.903837 31.3789782,24.903837 C31.6648828,24.903837 31.8435731,25.076571 31.789966,25.3088684 C31.7304026,25.594773 31.462367,26.440574 31.4147163,26.4882247 C31.3968473,26.5120501 31.2777204,26.2559273 31.1526371,25.9164156 Z" id="p10rOQs9W1"/>
            </g>
        </g>
    </g>
</svg>