<?xml version="1.0" encoding="UTF-8"?>
<svg width="16px" height="16px" viewBox="0 0 40 40" version="1.1" xmlns="http://www.w3.org/2000/svg">
    <title>Logo</title>
    <g id="Logo" stroke="none" stroke-width="1" fill="none" fill-rule="evenodd">
        <g id="slim" transform="translate(3.000000, 2.000000)" fill-rule="nonzero">
            <g id="Group" fill="#6F9B3E">
                <path d="M11.3049375,35.9435715 C11.2428661,35.9210001 11.0792234,35.8645715 10.9381521,35.8250716 C10.6165094,35.7235002 9.94500992,35.2890005 9.72493865,35.0294293 C9.31865323,34.5497868 9.18322475,34.3297155 9.00829631,33.8387873 C8.87851068,33.4889304 8.87851068,33.4889304 8.86158213,23.4164376 C8.85029642,16.216157 8.83336786,13.3383019 8.78822504,13.3100876 C8.70922509,13.2649448 8.52301094,13.3100876 8.46658241,13.3947304 C8.444011,13.4285876 8.41579673,14.8562294 8.39886817,16.560371 C8.3706539,19.6639402 8.3706539,19.6639402 8.12236837,20.171797 C7.67094012,21.0915821 6.88658354,21.7179388 5.92729851,21.9210815 C5.43072743,22.0226528 3.05508627,22.0395814 2.57544376,21.9436529 C1.56537305,21.7405102 0.769730764,21.1536535 0.329588221,20.2846541 C0.0305170065,19.6977974 0.0248741534,19.635726 0.00794559403,17.4575847 C-0.0146258184,15.256872 -0.0089829653,15.217372 0.301373956,14.8505865 C0.583516611,14.5176582 0.848730708,14.4443011 1.81930144,14.4443011 C2.64880085,14.4443011 2.70522938,14.449944 2.97044348,14.5910153 C3.27515755,14.7490152 3.51215738,15.0368007 3.60244303,15.3528005 C3.63630014,15.4600147 3.65887156,16.0863714 3.65887156,16.7465852 C3.65887156,18.02187 3.69837153,18.2645127 3.92972851,18.3886554 C4.14415692,18.5015125 4.39244246,18.4620125 4.56737091,18.2870841 C4.73101365,18.1234413 4.73101365,18.1234413 4.73101365,15.0988721 C4.73101365,11.8090887 4.73101365,11.7921602 5.06394198,11.0811607 C5.28965611,10.6015181 5.87086998,9.99773286 6.35615534,9.74380447 C6.92044066,9.45037611 7.30979752,9.36573331 8.15622549,9.36573331 C8.88415354,9.36573331 8.88415354,9.36573331 8.95751063,8.81837656 C9.18886761,7.04087783 9.67415297,5.71480735 10.6165094,4.32102263 C11.209009,3.4350947 12.2980797,2.32909549 13.1388648,1.76481017 C13.4153646,1.57859602 14.1545783,1.12716777 14.1827926,1.12716777 C14.1940783,1.12716777 14.4141496,1.03123927 14.6737208,0.907096501 C14.9276492,0.788596586 15.243649,0.658810964 15.3677918,0.624953846 C15.4919345,0.585453874 15.6442916,0.534668196 15.7063629,0.50645393 C16.6769337,0.105811359 18.8268607,-0.114259912 20.1077884,0.0606685346 C20.7397879,0.145311331 21.7216444,0.331525484 21.8570728,0.393596868 C21.9191442,0.421811134 22.1674298,0.512096783 22.4100724,0.591096727 C23.3072861,0.884525089 24.3963567,1.52216749 25.1863562,2.21623842 C25.5587845,2.54916676 25.5587845,2.54916676 27.88364,2.56045246 C30.4398524,2.57173817 30.3608525,2.56609532 31.1395662,2.94980933 C31.9747085,3.3617376 32.7026365,4.22509413 32.9734935,5.11666492 C33.0468506,5.3480219 33.0581363,6.2508784 33.0581363,10.951375 C33.0581363,16.4305854 33.0581363,16.5208711 32.9396364,16.8763708 C32.6800651,17.6832988 32.1552798,18.3378698 31.3652803,18.8570122 C31.1790662,18.9755122 30.9984949,19.0714407 30.9533521,19.0714407 C30.9138521,19.0714407 30.8574236,19.0940121 30.8292093,19.1222263 C30.688138,19.252012 29.994067,19.3705119 29.2322819,19.3930833 C28.4253539,19.4212976 28.4253539,19.4212976 28.4422824,19.6018689 C28.459211,19.7598687 28.4874252,19.7824402 28.7300679,19.8445115 C29.4918531,20.0307257 30.3439239,20.7078681 30.688138,21.3850104 C30.9872092,21.9718672 31.0267091,22.1806527 31.0267091,23.1173663 C31.0267091,23.97508 31.0267091,23.97508 31.1959947,24.0992228 C31.3709232,24.2346513 31.5909945,24.6352938 31.5909945,24.8327937 C31.5909945,24.9005079 31.5402088,25.1375078 31.4724945,25.357579 C31.0379949,26.8642208 30.9815663,26.971435 30.6373523,26.971435 C30.3100668,26.971435 30.2931382,26.9432208 29.7965672,25.588936 C29.6216387,25.1036506 29.5990673,24.590151 29.7457815,24.3700797 C29.80221,24.2854369 29.9489242,24.1500085 30.0787098,24.0653657 C30.3044239,23.9130086 30.3044239,23.9130086 30.2818525,23.0891521 C30.2592811,22.2935098 30.2536383,22.2427241 30.073067,21.8759387 C29.7739958,21.2552248 29.187139,20.747368 28.6172109,20.6232253 C28.4309967,20.5837253 28.4309967,20.5837253 28.4309967,26.9488636 C28.4309967,33.2575734 28.4309967,33.3083591 28.3124968,33.7090016 C28.1432112,34.2845727 27.9795685,34.5667153 27.5902116,34.9955721 C27.2121404,35.4075004 26.7889265,35.6783574 26.230284,35.8702144 C25.8917128,35.9887143 25.7619272,35.9943571 24.4132853,36 C23.617643,36 22.9066435,35.9774286 22.8332864,35.9492143 C22.7599293,35.9210001 22.5906437,35.8645715 22.4495724,35.8250716 C21.8288586,35.6388574 21.0557877,34.961715 20.7341451,34.3240726 C20.4125024,33.6807874 20.4125024,33.6638588 20.3730025,31.7678602 C20.3335025,29.9903614 20.3335025,29.9903614 20.1867883,29.736433 C19.8707885,29.200362 19.5322174,28.9520765 18.9453606,28.8279337 C18.3020754,28.6868624 17.472576,29.0762192 17.1565762,29.6517902 C16.9365049,30.0580757 16.9195764,30.1878613 16.9195764,31.7678602 C16.9195764,33.4607161 16.897005,33.6356445 16.586648,34.2732869 C16.4060767,34.6513581 15.7910057,35.3567147 15.5314345,35.4921432 C15.4411489,35.537286 15.3057204,35.616286 15.2267204,35.6670717 C15.1477205,35.7178573 14.9163635,35.8137858 14.7075779,35.8815001 C14.3577211,35.9887143 14.2110069,36 12.8736507,35.9943571 C12.0723655,35.9943571 11.3670089,35.9717857 11.3049375,35.9435715 Z M14.7414351,34.8996436 C15.1872205,34.6739295 15.5709345,34.2845727 15.8022915,33.8162158 C15.9885056,33.4325018 15.9885056,33.4325018 16.0223627,31.6832174 C16.0392913,30.7239323 16.0787913,29.854933 16.1126484,29.7646473 C16.3552911,29.0423621 16.8010765,28.5288625 17.4669331,28.201577 C17.9240042,27.9758629 17.9860756,27.9589343 18.5221467,27.9420058 C18.9961463,27.9250772 19.1541462,27.9420058 19.4588603,28.0435771 C20.085217,28.2523627 20.5592166,28.6191481 20.8977878,29.1665049 C21.2194304,29.6856474 21.2250733,29.7477188 21.2645733,31.6267888 C21.2927875,33.2745019 21.3040732,33.3930019 21.428216,33.7033588 C21.6087873,34.1604299 22.0771441,34.6513581 22.5511438,34.8827151 C22.9292149,35.0689292 22.9292149,35.0689292 24.424571,35.0689292 C25.9199271,35.0689292 25.9199271,35.0689292 26.2528554,34.8996436 C26.6478551,34.7021438 27.0823548,34.2902155 27.2572833,33.9516443 C27.5337831,33.4042876 27.5281402,33.6017874 27.5281402,26.2547927 C27.5281402,19.3535833 27.5281402,19.3535833 26.6309266,19.3535833 C25.654713,19.3535833 25.0283563,19.2689405 24.3963567,19.0545121 C22.6075723,18.4394411 21.1686448,16.9779422 20.5987166,15.177872 C20.429431,14.6530867 20.3673596,14.2637298 20.3504311,13.6825159 C20.3335025,13.1746592 20.3335025,13.1746592 20.7567165,13.1746592 C21.1799305,13.1746592 21.1799305,13.1746592 21.2194304,13.7276588 C21.3097161,14.9690865 21.7667872,16.0073714 22.6132152,16.8876565 C23.465286,17.7792273 24.5035709,18.2983698 25.7224272,18.4507268 C26.461641,18.5410125 29.5595673,18.5240839 30.0222813,18.4281554 C31.0210663,18.213727 31.79978,17.5083704 32.0988512,16.5434425 C32.2060654,16.1935856 32.2117083,16.0130143 32.2117083,10.9795893 C32.2117083,6.82080656 32.1947797,5.72609306 32.1327084,5.50037893 C31.8674943,4.51287964 31.0210663,3.70030879 30.0392099,3.49716608 C29.8247814,3.45202325 29.0573534,3.44073755 27.5676402,3.45202325 C25.1186419,3.48023752 25.0452848,3.49152323 24.0577856,3.97680859 C22.9066435,4.54673676 22.0489298,5.46087896 21.5636445,6.65716382 C21.3322875,7.22144913 21.2589304,7.57694888 21.2137876,8.25973411 C21.1799305,8.82966227 21.1799305,8.82966227 20.7680022,8.84659083 C20.4237882,8.85787653 20.3560739,8.84659083 20.3222168,8.76194803 C20.2657883,8.609591 20.4012167,7.40766329 20.5366452,6.93930648 C21.0219306,5.19566487 22.3705725,3.68902309 24.0464998,3.01752356 C24.2552854,2.93288077 24.4358567,2.84259512 24.4527853,2.82002371 C24.4979281,2.74666662 23.6515001,2.15980989 23.0307863,1.84381012 C22.3197868,1.48266752 21.4169303,1.17795345 20.6156452,1.03688212 C19.7635743,0.884525089 18.0142899,0.895810795 17.1396476,1.05945354 C14.3520782,1.57859602 11.8805085,3.46330896 10.6898665,5.98002145 C10.1537955,7.11423492 9.88293854,8.20894843 9.82086715,9.50680464 C9.78136718,10.2403755 9.78136718,10.2403755 8.51172523,10.2685898 C7.24208328,10.2968041 7.24208328,10.2968041 6.83015501,10.5168753 C6.35051249,10.7708037 6.08529839,11.0529464 5.83701286,11.566446 C5.66208441,11.9332315 5.66208441,11.9332315 5.63387015,15.1214435 C5.60565588,18.6256553 5.61694159,18.4902268 5.24451328,18.9134408 C4.97929919,19.2181548 4.57301376,19.3705119 4.08208554,19.3422976 C3.73222865,19.3253691 3.64758585,19.3027976 3.40494317,19.1222263 C3.20180045,18.981155 3.07201483,18.828798 2.95351492,18.5861553 C2.78422932,18.253227 2.78422932,18.253227 2.76730077,16.8820137 C2.74472935,15.5108004 2.74472935,15.5108004 2.60365803,15.4205147 C2.41744387,15.2963719 1.50330167,15.2455863 1.21551616,15.3415148 C0.854373561,15.4600147 0.865659267,15.409229 0.882587826,17.4011561 C0.893873532,18.445084 0.922087798,19.3084405 0.955944917,19.4382261 C1.12523051,20.05894 1.57101591,20.5893682 2.18044404,20.8884394 C2.5585152,21.0746535 2.5585152,21.0746535 4.1949426,21.0746535 C5.83137,21.0746535 5.83137,21.0746535 6.19815546,20.8940822 C6.87529783,20.5611539 7.3605832,19.9291543 7.49036882,19.212512 C7.52986879,19.0037264 7.5524402,17.8469415 7.5524402,16.0355857 C7.5524402,13.1859449 7.5524402,13.1859449 7.69351153,12.9433022 C7.78379718,12.7909452 7.94179707,12.6385881 8.10543981,12.5426596 C8.35372535,12.3959454 8.41015388,12.3846597 9.04779628,12.3846597 C9.72493865,12.3846597 9.72493865,12.3846597 9.75315292,22.8803665 C9.78136718,33.3760733 9.78136718,33.3760733 9.91679566,33.7090016 C10.0691527,34.0645014 10.4867238,34.5667153 10.8027236,34.7642152 C11.3218661,35.0802149 11.4177946,35.0971435 12.9695792,35.0802149 C14.4085067,35.0689292 14.4085067,35.0689292 14.7414351,34.8996436 Z M30.8179236,25.5325075 C31.0436377,24.8102223 31.0492806,24.7481509 30.9138521,24.629651 C30.688138,24.4265083 30.1802812,24.5562939 30.1802812,24.8158651 C30.1802812,24.9569365 30.6034952,26.0685785 30.6373523,26.0234357 C30.6599237,26.0008643 30.7389236,25.780793 30.8179236,25.5325075 Z"
                      id="pjZpMBxH9"/>
                <path d="M14.0642927,9.76637589 C13.5959359,9.64787597 13.2517218,9.18516202 13.2517218,8.68294809 C13.2517218,7.88166295 14.1094355,7.35687761 14.820435,7.72366306 C15.4637203,8.05094854 15.627363,8.86351939 15.1590062,9.39959043 C14.8712207,9.72687591 14.4592924,9.86794724 14.0642927,9.76637589 Z"
                      id="pjp0PWjcY"/>
                <path d="M30.6655665,7.28352052 C30.609138,7.22144913 30.5470666,7.02394927 30.5188524,6.81516371 C30.4511381,6.27344981 30.3495668,5.99695001 30.1182098,5.73173591 C29.9376385,5.5285932 29.8247814,5.46087896 29.4354246,5.33673619 C29.1758533,5.24645054 28.7808536,5.1674506 28.5551395,5.15052204 C28.2052826,5.12230778 28.1262826,5.09409351 28.035997,4.97559359 C27.8215686,4.70473665 27.9400685,4.33230834 28.2617111,4.25895125 C28.6172109,4.17995131 29.689353,4.42823684 30.2818525,4.73295091 C30.8179236,5.00380786 31.1790662,5.54552176 31.3370661,6.30730693 C31.455566,6.87159224 31.4499231,7.18194916 31.3201375,7.29480622 C31.1734233,7.4302347 30.7897093,7.41894899 30.6655665,7.28352052 Z"
                      id="pdneXlYxX"/>
            </g>
            <g id="Group" transform="translate(0.876042, 0.929328)" fill="#FFFEFF">
                <path d="M10.3893954,34.0606012 C9.7799673,33.8179586 9.27211052,33.338316 9.04075354,32.7796736 C8.90532507,32.4467453 8.90532507,32.4467453 8.8771108,21.9510385 C8.84889653,11.4553317 8.84889653,11.4553317 8.17175416,11.4553317 C7.53411176,11.4553317 7.47768323,11.4666174 7.22939769,11.6133316 C7.06575495,11.7092601 6.90775506,11.8616171 6.81746941,12.0139741 C6.67639809,12.2566168 6.67639809,12.2566168 6.67639809,15.1062576 C6.67639809,16.9176135 6.65382667,18.0743984 6.6143267,18.2831839 C6.48454108,18.9998263 5.99925571,19.6318258 5.32211334,19.9647542 C4.95532789,20.1453255 4.95532789,20.1453255 3.31890049,20.1453255 C1.68247308,20.1453255 1.68247308,20.1453255 1.30440193,19.9591113 C0.694973789,19.6600401 0.249188393,19.1296119 0.0799028001,18.5088981 C0.0460456814,18.3791124 0.0178314158,17.5157559 0.00654570961,16.4718281 C-0.0103828497,14.4799009 -0.0216685559,14.5306866 0.339474043,14.4121867 C0.627259552,14.3162582 1.54140176,14.3670439 1.72761591,14.4911867 C1.86868724,14.5814723 1.86868724,14.5814723 1.89125865,15.9526856 C1.90818721,17.3238989 1.90818721,17.3238989 2.0774728,17.6568273 C2.19597272,17.8994699 2.32575834,18.051827 2.52890105,18.1928983 C2.77154373,18.3734696 2.85618653,18.396041 3.20604342,18.4129696 C3.69697164,18.4411838 4.10325707,18.2888268 4.36847116,17.9841127 C4.74089947,17.5608987 4.72961376,17.6963272 4.75782803,14.1921154 C4.78604229,11.0039034 4.78604229,11.0039034 4.96097074,10.637118 C5.20925628,10.1236183 5.47447037,9.84147569 5.95411289,9.5875473 C6.36604117,9.36747603 6.36604117,9.36747603 7.63568312,9.33926177 C8.90532507,9.3110475 8.90532507,9.3110475 8.94482504,8.5774766 C9.00689642,7.27962038 9.27775337,6.18490688 9.81382442,5.0506934 C11.0044664,2.53398091 13.4760361,0.649267974 16.2636055,0.130125488 C17.1382478,-0.0335172526 18.8875322,-0.0448029588 19.739603,0.107554075 C20.5408882,0.248625403 21.4437447,0.553339471 22.1547442,0.91448207 C22.775458,1.23048184 23.621886,1.81733857 23.5767432,1.89069566 C23.5598146,1.91326707 23.3792433,2.00355272 23.1704577,2.08819552 C21.4945304,2.75969504 20.1458885,4.26633682 19.6606031,6.00997843 C19.5251746,6.47833524 19.3897461,7.68026295 19.4461747,7.83261998 C19.4800318,7.91726278 19.547746,7.92854849 19.8919601,7.91726278 C20.3038884,7.90033422 20.3038884,7.90033422 20.3377455,7.33040606 C20.3828883,6.64762083 20.4562454,6.29212109 20.6876024,5.72783577 C21.1728877,4.53155091 22.0306014,3.61740871 23.1817434,3.04748055 C24.1692427,2.56219518 24.2425998,2.55090947 26.6915981,2.52269521 C28.1813113,2.5114095 28.9487393,2.52269521 29.1631677,2.56783803 C30.1450242,2.77098074 30.9914521,3.58355159 31.2566662,4.57105089 C31.3187376,4.79676501 31.3356662,5.89147851 31.3356662,10.0502613 C31.3356662,15.0836862 31.3300233,15.2642575 31.2228091,15.6141144 C30.9237379,16.5790423 30.1450242,17.2843989 29.1462392,17.4988274 C28.6835252,17.5947559 25.5855989,17.6116844 24.8463851,17.5213988 C23.6275288,17.3690417 22.5892439,16.8498993 21.737173,15.9583285 C20.8907451,15.0780434 20.433674,14.0397584 20.3433883,12.7983307 C20.3038884,12.2453311 20.3038884,12.2453311 19.8806744,12.2453311 C19.4574604,12.2453311 19.4574604,12.2453311 19.4743889,12.7531879 C19.5533889,15.478686 21.6468874,17.85997 24.389314,18.3396125 C24.6714567,18.3903982 25.2244563,18.4242553 25.7548845,18.4242553 C26.6520981,18.4242553 26.6520981,18.4242553 26.6520981,25.3254646 C26.6520981,32.6724594 26.657741,32.4749595 26.3812412,33.0223163 C26.2063127,33.3608875 25.771813,33.7728157 25.3768133,33.9703156 C25.043885,34.1396012 25.043885,34.1396012 23.5485289,34.1396012 C22.0531728,34.1396012 22.0531728,34.1396012 21.6751017,33.953387 C21.201102,33.7220301 20.7327452,33.2311018 20.5521739,32.7740307 C20.4280311,32.4636738 20.4167454,32.3451739 20.3885311,30.6974608 C20.3490312,28.8183907 20.3433883,28.7563193 20.0217457,28.2371768 C19.6831745,27.6898201 19.2091748,27.3230346 18.5828182,27.1142491 C18.2781041,27.0126777 18.1201042,26.9957492 17.6461045,27.0126777 C17.1100335,27.0296063 17.0479621,27.0465348 16.590891,27.272249 C15.9250343,27.5995344 15.4792489,28.1130341 15.2366063,28.8353193 C15.2027491,28.9256049 15.1632492,29.7946043 15.1463206,30.7538893 C15.1124635,32.5031738 15.1124635,32.5031738 14.9262493,32.8868878 C14.6948924,33.3552446 14.3111783,33.7446015 13.865393,33.9703156 C13.5324646,34.1396012 13.5324646,34.1396012 12.0935371,34.1508869 C10.8013237,34.1621726 10.6263953,34.1565297 10.3893954,34.0606012 Z M13.9556786,8.74676219 C14.1870356,8.62826227 14.4522497,8.29533394 14.5199639,8.0357627 C14.6497495,7.55612018 14.4071068,7.03133484 13.9443929,6.79433501 C13.2333934,6.42754956 12.3756797,6.9523349 12.3756797,7.75362004 C12.3756797,8.5774766 13.2333934,9.11919049 13.9556786,8.74676219 Z M30.4440954,6.36547818 C30.573881,6.25262111 30.5795239,5.94226419 30.461024,5.37797888 C30.3030241,4.61619371 29.9418815,4.07447981 29.4058104,3.80362286 C28.8133108,3.4989088 27.7411688,3.25062326 27.385669,3.3296232 C27.0640264,3.40298029 26.9455265,3.7754086 27.1599549,4.04626555 C27.2502405,4.16476546 27.3292405,4.19297973 27.6790974,4.22119399 C27.9048115,4.23812255 28.2998112,4.3171225 28.5593825,4.40740815 C29.2816677,4.64440798 29.5299532,4.98862202 29.6428102,5.88583566 C29.6710245,6.09462123 29.7330959,6.29212109 29.7895244,6.35419247 C29.9136672,6.48962094 30.2973812,6.50090665 30.4440954,6.36547818 Z"
                      id="pxPPw6Tpc"/>
                <path d="M29.5130246,24.5523938 C29.4001676,24.2307511 29.3042391,23.9316799 29.3042391,23.8865371 C29.3042391,23.7454658 29.5243103,23.5931087 29.727453,23.5931087 C29.99831,23.5931087 30.1675956,23.7567515 30.1168099,23.9768227 C30.0603814,24.2476797 29.806453,25.0489648 29.7613102,25.0941077 C29.7443816,25.1166791 29.6315245,24.8740364 29.5130246,24.5523938 Z"
                      id="p10rOQs9W1"/>
            </g>
        </g>
    </g>
</svg>