<svg xmlns="http://www.w3.org/2000/svg" width="16" height="16" viewBox="0 0 40 40">
    <g fill="none" fill-rule="nonzero">
        <g fill="#6F9B3E">
            <path d="M14.305 37.944a5.91 5.91 0 0 0-.367-.119c-.321-.101-.993-.536-1.213-.796-.406-.48-.542-.7-.717-1.19-.13-.35-.13-.35-.146-10.423-.012-7.2-.029-10.078-.074-10.106-.079-.045-.265 0-.321.085-.023.034-.051 1.461-.068 3.165-.028 3.104-.028 3.104-.277 3.612-.451.92-1.235 1.546-2.195 1.75-.496.1-2.872.118-3.352.022-1.01-.203-1.805-.79-2.245-1.66-.3-.586-.305-.648-.322-2.826-.023-2.201-.017-2.24.293-2.607.283-.333.548-.407 1.518-.407.83 0 .886.006 1.151.147.305.158.542.446.632.762.034.107.057.733.057 1.394 0 1.275.04 1.518.27 1.642a.533.533 0 0 0 .638-.102c.164-.164.164-.164.164-3.188 0-3.29 0-3.307.333-4.018.226-.48.807-1.083 1.292-1.337.564-.294.954-.378 1.8-.378.728 0 .728 0 .802-.548.23-1.777.716-3.103 1.659-4.497.592-.886 1.681-1.992 2.522-2.556.276-.186 1.016-.638 1.044-.638.011 0 .231-.096.49-.22.255-.118.57-.248.695-.282.124-.04.276-.09.338-.119.97-.4 3.12-.62 4.402-.445.632.084 1.614.27 1.75.333a8.4 8.4 0 0 0 .552.197c.897.294 1.986.931 2.776 1.625.373.333.373.333 2.698.344 2.556.012 2.477.006 3.256.39.835.412 1.563 1.275 1.833 2.167.074.231.085 1.134.085 5.834 0 5.48 0 5.57-.118 5.925-.26.807-.785 1.462-1.575 1.981-.186.119-.367.214-.412.214a.203.203 0 0 0-.124.051c-.14.13-.835.249-1.597.271-.807.028-.807.028-.79.209.017.158.045.18.288.243.762.186 1.614.863 1.958 1.54.3.587.339.796.339 1.732 0 .858 0 .858.169.982.175.136.395.536.395.734 0 .068-.05.305-.119.525-.434 1.506-.49 1.613-.835 1.613-.327 0-.344-.028-.84-1.382-.175-.485-.198-.999-.051-1.219a1.37 1.37 0 0 1 .333-.305c.225-.152.225-.152.203-.976-.023-.795-.028-.846-.209-1.213-.299-.62-.886-1.129-1.456-1.253-.186-.04-.186-.04-.186 6.326 0 6.309 0 6.36-.119 6.76-.169.576-.332.858-.722 1.287a3.134 3.134 0 0 1-1.36.874c-.338.119-.468.124-1.817.13-.795 0-1.506-.023-1.58-.05a5.281 5.281 0 0 0-.383-.125c-.621-.186-1.394-.863-1.716-1.5-.321-.644-.321-.661-.361-2.557-.04-1.778-.04-1.778-.186-2.032-.316-.536-.655-.784-1.242-.908-.643-.141-1.472.248-1.788.824-.22.406-.237.536-.237 2.116 0 1.693-.023 1.868-.333 2.505-.18.378-.796 1.084-1.056 1.22-.09.044-.225.123-.304.174a3.02 3.02 0 0 1-.52.215c-.35.107-.496.118-1.833.112-.802 0-1.507-.022-1.57-.05ZM17.74 36.9c.446-.226.83-.615 1.061-1.084.187-.383.187-.383.22-2.133.017-.96.057-1.828.09-1.918.243-.723.69-1.236 1.355-1.563.457-.226.52-.243 1.055-.26.474-.017.632 0 .937.102.626.208 1.1.575 1.439 1.123.321.519.327.58.367 2.46.028 1.648.04 1.766.163 2.076.18.457.65.948 1.123 1.18.378.186.378.186 1.874.186 1.495 0 1.495 0 1.828-.17.395-.197.83-.609 1.004-.947.277-.548.271-.35.271-7.697 0-6.901 0-6.901-.897-6.901-.976 0-1.603-.085-2.235-.3-1.788-.615-3.227-2.076-3.797-3.876a4.83 4.83 0 0 1-.249-1.495c-.016-.508-.016-.508.407-.508s.423 0 .462.553c.09 1.241.548 2.28 1.394 3.16a5.047 5.047 0 0 0 3.11 1.563c.739.09 3.837.073 4.3-.023a2.747 2.747 0 0 0 2.076-1.885c.107-.35.113-.53.113-5.563 0-4.16-.017-5.254-.08-5.48-.265-.987-1.11-1.8-2.093-2.003-.214-.045-.982-.056-2.471-.045-2.45.028-2.523.04-3.51.525a5.06 5.06 0 0 0-2.494 2.68c-.232.564-.305.92-.35 1.603-.034.57-.034.57-.446.587-.344.01-.412 0-.446-.085-.056-.152.08-1.354.215-1.823.485-1.743 1.834-3.25 3.51-3.921.208-.085.389-.175.406-.198.045-.073-.801-.66-1.422-.976a9.15 9.15 0 0 0-2.415-.807c-.852-.152-2.602-.141-3.476.022-2.788.52-5.26 2.404-6.45 4.921-.536 1.134-.807 2.229-.87 3.527-.039.733-.039.733-1.308.762-1.27.028-1.27.028-1.682.248-.48.254-.745.536-.993 1.05-.175.366-.175.366-.203 3.554-.028 3.505-.017 3.37-.39 3.792-.265.305-.671.458-1.162.43-.35-.018-.434-.04-.677-.22a1.281 1.281 0 0 1-.451-.537c-.17-.333-.17-.333-.187-1.704-.022-1.371-.022-1.371-.163-1.461-.187-.125-1.1-.175-1.388-.08-.362.119-.35.068-.333 2.06.01 1.044.04 1.907.073 2.037a2.31 2.31 0 0 0 1.224 1.45c.379.187.379.187 2.015.187 1.636 0 1.636 0 2.003-.18a2.37 2.37 0 0 0 1.292-1.682c.04-.21.062-1.366.062-3.177 0-2.85 0-2.85.142-3.093.09-.152.248-.304.411-.4.249-.147.305-.158.943-.158.677 0 .677 0 .705 10.495.028 10.496.028 10.496.164 10.829.152.356.57.858.886 1.055.519.316.615.333 2.167.316 1.439-.011 1.439-.011 1.771-.18Zm16.077-9.367c.226-.723.231-.785.096-.903-.226-.203-.734-.074-.734.186 0 .14.423 1.253.457 1.207.023-.022.102-.242.18-.49Z"/>
            <path d="M17.064 11.766c-.468-.118-.812-.58-.812-1.083a1.08 1.08 0 0 1 1.568-.96c.644.328.807 1.14.339 1.677-.288.327-.7.468-1.095.366ZM33.666 9.284c-.057-.063-.119-.26-.147-.469-.068-.542-.17-.818-.4-1.083-.181-.203-.294-.271-.684-.395-.26-.09-.654-.17-.88-.186-.35-.029-.429-.057-.519-.175-.214-.271-.096-.644.226-.717.355-.079 1.427.17 2.02.474.536.27.897.813 1.055 1.574.119.565.113.875-.017.988-.147.135-.53.124-.654-.011Z"/>
        </g>
        <g fill="#FFFEFF">
            <path d="M14.265 36.99c-.609-.243-1.117-.722-1.348-1.281-.136-.333-.136-.333-.164-10.829-.028-10.495-.028-10.495-.705-10.495-.638 0-.694.01-.943.158a1.218 1.218 0 0 0-.411.4c-.142.243-.142.243-.142 3.093 0 1.81-.022 2.968-.062 3.177a2.37 2.37 0 0 1-1.292 1.681c-.367.18-.367.18-2.003.18-1.636 0-1.636 0-2.015-.186a2.31 2.31 0 0 1-1.224-1.45c-.034-.13-.062-.993-.073-2.037-.017-1.992-.029-1.941.333-2.06.287-.095 1.201-.045 1.388.08.14.09.14.09.163 1.461.017 1.371.017 1.371.187 1.704.118.243.248.395.45.536.244.18.328.203.678.22.491.029.897-.124 1.163-.429.372-.423.36-.287.389-3.792.028-3.188.028-3.188.203-3.555.248-.513.514-.795.993-1.05.412-.22.412-.22 1.682-.247 1.27-.029 1.27-.029 1.309-.762.062-1.298.333-2.393.869-3.527 1.19-2.517 3.662-4.401 6.45-4.92.874-.164 2.624-.175 3.476-.023a9.15 9.15 0 0 1 2.415.807c.62.316 1.467.903 1.422.976-.017.023-.198.113-.407.198-1.675.671-3.024 2.178-3.51 3.921-.135.469-.27 1.67-.214 1.823.034.085.102.096.446.085.412-.017.412-.017.446-.587.045-.683.118-1.039.35-1.603a5.06 5.06 0 0 1 2.494-2.68c.987-.485 1.06-.497 3.51-.525 1.49-.011 2.257 0 2.471.045.982.203 1.828 1.016 2.094 2.003.062.226.079 1.32.079 5.48 0 5.033-.006 5.214-.113 5.563a2.747 2.747 0 0 1-2.077 1.885c-.462.096-3.56.113-4.3.023a5.047 5.047 0 0 1-3.109-1.563c-.846-.88-1.303-1.919-1.394-3.16-.04-.553-.04-.553-.462-.553-.423 0-.423 0-.407.508.08 2.725 2.173 5.106 4.915 5.586.282.05.835.085 1.366.085.897 0 .897 0 .897 6.9 0 7.348.006 7.15-.27 7.698-.176.338-.61.75-1.005.948-.333.169-.333.169-1.828.169-1.496 0-1.496 0-1.874-.186-.474-.232-.942-.723-1.123-1.18-.124-.31-.135-.428-.163-2.076-.04-1.88-.046-1.941-.367-2.46a2.584 2.584 0 0 0-1.44-1.123c-.304-.102-.462-.119-.936-.102-.536.017-.598.034-1.055.26-.666.327-1.112.84-1.354 1.563-.034.09-.074.959-.09 1.918-.034 1.75-.034 1.75-.22 2.133A2.433 2.433 0 0 1 17.74 36.9c-.332.169-.332.169-1.771.18-1.293.012-1.468.006-1.705-.09Zm3.567-25.314c.231-.118.496-.451.564-.71.13-.48-.113-1.005-.576-1.242a1.08 1.08 0 0 0-1.568.959c0 .824.857 1.366 1.58.993ZM34.32 9.295c.13-.113.136-.423.017-.988-.158-.761-.52-1.303-1.055-1.574-.593-.305-1.665-.553-2.02-.474-.322.073-.44.446-.226.717.09.118.17.146.52.175.225.016.62.095.88.186.722.237.97.581 1.083 1.478.028.209.09.406.147.469.124.135.507.146.654.01ZM33.39 27.482c-.114-.322-.21-.621-.21-.666 0-.141.22-.294.423-.294.271 0 .44.164.39.384-.057.271-.31 1.072-.356 1.117-.017.023-.13-.22-.248-.541Z"/>
        </g>
    </g>
</svg>
